<svg width="64" height="64" viewBox="0 0 64 64" fill="none" xmlns="http://www.w3.org/2000/svg">
<path d="M53.137 12.484C53.09 12.201 52.859 11.984 52.573 11.957C52.348 11.92 47.403 11.581 47.403 11.581L43.633 7.811C43.293 7.435 42.541 7.545 42.257 7.623C42.22 7.623 41.505 7.848 40.335 8.228C39.198 4.938 37.185 1.922 33.639 1.922H33.336C32.32 0.605 31.076 0 30.026 0C21.77 0.037 17.836 10.333 16.592 15.594L10.822 17.364C9.05196 17.928 8.98696 17.969 8.74896 19.657L3.88196 57.175L40.35 64L60.113 59.74C60.113 59.703 53.173 12.842 53.137 12.484ZM38.313 8.86C37.396 9.163 36.35 9.465 35.223 9.805V9.125C35.2563 7.42816 35.0021 5.73792 34.471 4.126C36.319 4.41 37.561 6.483 38.314 8.859L38.313 8.86ZM32.245 4.562C32.848 6.34 33.128 8.212 33.071 10.089V10.429L26.696 12.392C27.944 7.732 30.245 5.43 32.245 4.562ZM29.795 2.269C30.1721 2.27702 30.5387 2.39483 30.85 2.608C28.19 3.846 25.378 6.974 24.172 13.235L19.127 14.781C20.55 10.03 23.87 2.26 29.792 2.26L29.795 2.269Z" fill="#95BF47"/>
<path d="M52.573 11.957C52.348 11.92 47.403 11.581 47.403 11.581L43.633 7.811C43.493 7.669 43.303 7.588 43.106 7.586L40.354 64L60.117 59.74L53.137 12.522C53.1144 12.3806 53.0477 12.2499 52.9464 12.1486C52.8451 12.0473 52.7144 11.9806 52.573 11.958V11.957Z" fill="#5E8E3E"/>
<path d="M33.64 22.89L31.186 30.132C29.703 29.414 28.082 29.028 26.434 28.999C22.586 28.999 22.398 31.411 22.398 32.017C22.398 35.315 31.034 36.581 31.034 44.35C31.034 50.46 27.149 54.38 21.934 54.38C15.674 54.38 12.467 50.495 12.467 50.495L14.132 44.945C14.132 44.945 17.412 47.775 20.205 47.775C20.5389 47.7877 20.8719 47.7326 21.1839 47.6129C21.4958 47.4932 21.7802 47.3115 22.0199 47.0787C22.2596 46.8459 22.4496 46.5669 22.5784 46.2586C22.7071 45.9503 22.772 45.6191 22.769 45.285C22.769 40.945 15.679 40.758 15.679 33.667C15.679 27.705 19.977 21.897 28.613 21.897C32.007 21.947 33.631 22.887 33.631 22.887L33.64 22.89Z" fill="white"/>
</svg>
